<?xml version="1.0" standalone="no"?>
<!DOCTYPE svg PUBLIC "-//W3C//DTD SVG 20010904//EN"
 "http://www.w3.org/TR/2001/REC-SVG-20010904/DTD/svg10.dtd">
<svg version="1.0" xmlns="http://www.w3.org/2000/svg"
 width="600.000000pt" height="600.000000pt" viewBox="0 0 600.000000 600.000000"
 preserveAspectRatio="xMidYMid meet">
<metadata>
Created by potrace 1.13, written by Peter Selinger 2001-2015
</metadata>
<g transform="translate(0.000000,600.000000) scale(0.100000,-0.100000)"
fill="#000000" stroke="none">
<path d="M0 3000 l0 -3000 3000 0 3000 0 0 3000 0 3000 -3000 0 -3000 0 0
-3000z m5955 0 l0 -2955 -2955 0 -2955 0 -3 2945 c-1 1620 0 2951 3 2958 3 10
600 12 2957 10 l2953 -3 0 -2955z"/>
<path d="M400 3015 l0 -2625 2625 0 2625 0 0 2625 0 2625 -2625 0 -2625 0 0
-2625z m5205 0 l0 -2580 -2580 0 -2580 0 -3 2570 c-1 1414 0 2576 3 2583 3 10
525 12 2582 10 l2578 -3 0 -2580z"/>
<path d="M3011 4933 c-19 -10 -43 -30 -54 -44 -10 -14 -333 -779 -718 -1699
-384 -920 -711 -1693 -725 -1717 -46 -79 -144 -129 -323 -164 -75 -14 -98 -35
-107 -96 -6 -43 -1 -120 9 -130 3 -3 63 1 134 8 164 17 652 17 887 0 148 -10
180 -10 187 1 5 7 9 43 9 80 0 97 -16 112 -148 138 -233 47 -273 106 -199 292
18 46 92 239 163 430 l129 348 601 0 c472 0 603 -3 607 -12 159 -419 317 -864
317 -896 0 -73 -54 -114 -197 -152 -111 -30 -129 -38 -144 -67 -14 -26 -20
-156 -8 -168 4 -3 204 2 445 11 433 17 677 14 1056 -13 l86 -6 7 47 c19 122
-12 169 -126 192 -135 28 -236 79 -277 138 -11 17 -334 805 -717 1751 -383
946 -700 1723 -704 1727 -4 5 -40 10 -81 14 -61 4 -81 2 -109 -13z m94 -1616
c130 -346 234 -631 232 -633 -2 -2 -220 -3 -485 -2 l-481 3 238 615 c130 338
240 624 244 634 4 10 9 17 11 15 2 -2 110 -287 241 -632z"/>
</g>
</svg>
