<?xml version="1.0" standalone="no"?>
<!DOCTYPE svg PUBLIC "-//W3C//DTD SVG 20010904//EN"
 "http://www.w3.org/TR/2001/REC-SVG-20010904/DTD/svg10.dtd">
<svg version="1.0" xmlns="http://www.w3.org/2000/svg"
 width="600.000000pt" height="600.000000pt" viewBox="0 0 600.000000 600.000000"
 preserveAspectRatio="xMidYMid meet">
<metadata>
Created by potrace 1.13, written by Peter Selinger 2001-2015
</metadata>
<g transform="translate(0.000000,600.000000) scale(0.100000,-0.100000)"
fill="#000000" stroke="none">
<path d="M0 3000 l0 -3000 3000 0 3000 0 0 3000 0 3000 -3000 0 -3000 0 0
-3000z m5955 0 l0 -2955 -2955 0 -2955 0 -3 2945 c-1 1620 0 2951 3 2958 3 10
600 12 2957 10 l2953 -3 0 -2955z"/>
<path d="M400 3015 l0 -2625 2625 0 2625 0 0 2625 0 2625 -2625 0 -2625 0 0
-2625z m5205 0 l0 -2580 -2580 0 -2580 0 -3 2570 c-1 1414 0 2576 3 2583 3 10
525 12 2582 10 l2578 -3 0 -2580z"/>
<path d="M1505 4887 c-9 -68 1 -130 23 -150 9 -9 62 -25 118 -36 178 -37 241
-67 273 -135 21 -42 21 -45 21 -1542 0 -1433 -1 -1501 -19 -1539 -10 -22 -27
-48 -37 -57 -36 -32 -129 -67 -234 -88 -58 -12 -113 -28 -122 -37 -23 -21 -32
-71 -23 -138 l6 -55 107 1 c59 0 143 5 187 10 44 6 456 14 915 18 912 9 898 8
1138 72 217 57 383 145 522 276 189 178 285 396 297 678 8 194 -22 325 -108
473 -51 85 -218 247 -316 305 -162 97 -393 173 -600 199 -51 7 -93 15 -93 18
0 3 29 14 65 24 262 75 540 277 627 456 62 126 73 183 72 365 -1 131 -5 174
-23 240 -79 292 -271 478 -601 583 -219 69 -381 81 -1096 82 -504 0 -855 9
-1031 26 l-61 5 -7 -54z m1410 -287 c345 -39 554 -204 610 -482 39 -195 -1
-419 -101 -570 -122 -183 -341 -278 -643 -278 l-101 0 0 670 0 670 73 0 c39 0
113 -5 162 -10z m297 -1654 c335 -77 549 -269 630 -565 31 -110 31 -381 0
-492 -56 -206 -172 -332 -372 -403 -201 -72 -557 -74 -698 -4 -35 17 -53 34
-69 68 l-23 44 0 689 0 690 233 -6 c155 -4 254 -11 299 -21z"/>
</g>
</svg>
