<?xml version="1.0" standalone="no"?>
<!DOCTYPE svg PUBLIC "-//W3C//DTD SVG 20010904//EN"
 "http://www.w3.org/TR/2001/REC-SVG-20010904/DTD/svg10.dtd">
<svg version="1.0" xmlns="http://www.w3.org/2000/svg"
 width="600.000000pt" height="600.000000pt" viewBox="0 0 600.000000 600.000000"
 preserveAspectRatio="xMidYMid meet">
<metadata>
Created by potrace 1.13, written by Peter Selinger 2001-2015
</metadata>
<g transform="translate(0.000000,600.000000) scale(0.100000,-0.100000)"
fill="#000000" stroke="none">
<path d="M0 3000 l0 -3000 3000 0 3000 0 0 3000 0 3000 -3000 0 -3000 0 0
-3000z m5955 0 l0 -2955 -2955 0 -2955 0 -3 2945 c-1 1620 0 2951 3 2958 3 10
600 12 2957 10 l2953 -3 0 -2955z"/>
<path d="M400 3015 l0 -2625 2625 0 2625 0 0 2625 0 2625 -2625 0 -2625 0 0
-2625z m5205 0 l0 -2580 -2580 0 -2580 0 -3 2570 c-1 1414 0 2576 3 2583 3 10
525 12 2582 10 l2578 -3 0 -2580z"/>
<path d="M3135 4973 c-218 -14 -490 -69 -647 -132 -518 -206 -888 -574 -1073
-1066 -52 -140 -100 -336 -120 -495 -21 -161 -16 -483 10 -645 70 -446 238
-798 507 -1062 143 -142 262 -224 458 -317 195 -92 422 -152 664 -175 322 -32
1006 1 1396 67 l104 18 9 39 c47 221 152 591 254 903 20 63 17 68 -65 78 -131
16 -180 -11 -222 -121 -40 -104 -138 -290 -189 -357 -99 -130 -211 -210 -369
-264 -240 -81 -577 -86 -797 -11 -493 169 -839 656 -952 1342 -25 153 -25 584
0 730 39 221 85 363 170 529 166 323 438 527 797 596 275 54 604 27 795 -64
191 -91 310 -239 415 -517 21 -58 48 -111 60 -121 16 -13 40 -18 89 -18 61 0
136 12 147 23 3 3 -6 49 -20 103 -45 179 -102 536 -118 744 l-3 35 -126 32
c-427 107 -816 149 -1174 126z"/>
</g>
</svg>
