<?xml version="1.0" standalone="no"?>
<!DOCTYPE svg PUBLIC "-//W3C//DTD SVG 20010904//EN"
 "http://www.w3.org/TR/2001/REC-SVG-20010904/DTD/svg10.dtd">
<svg version="1.0" xmlns="http://www.w3.org/2000/svg"
 width="600.000000pt" height="600.000000pt" viewBox="0 0 600.000000 600.000000"
 preserveAspectRatio="xMidYMid meet">
<metadata>
Created by potrace 1.13, written by Peter Selinger 2001-2015
</metadata>
<g transform="translate(0.000000,600.000000) scale(0.100000,-0.100000)"
fill="#000000" stroke="none">
<path d="M0 3000 l0 -3000 3000 0 3000 0 0 3000 0 3000 -3000 0 -3000 0 0
-3000z m5955 0 l0 -2955 -2955 0 -2955 0 -3 2945 c-1 1620 0 2951 3 2958 3 10
600 12 2957 10 l2953 -3 0 -2955z"/>
<path d="M400 3015 l0 -2625 2625 0 2625 0 0 2625 0 2625 -2625 0 -2625 0 0
-2625z m5205 0 l0 -2580 -2580 0 -2580 0 -3 2570 c-1 1414 0 2576 3 2583 3 10
525 12 2582 10 l2578 -3 0 -2580z"/>
<path d="M1126 4922 c-3 -3 -6 -43 -6 -89 0 -90 13 -117 62 -127 219 -44 319
-87 352 -151 21 -40 21 -41 24 -1523 2 -1069 -1 -1496 -9 -1525 -18 -67 -72
-111 -181 -145 -51 -17 -113 -33 -138 -37 -61 -10 -99 -31 -105 -58 -3 -12 -5
-54 -3 -92 l3 -70 95 2 c52 1 198 7 325 13 126 5 554 10 951 10 434 0 764 4
830 11 349 34 655 141 940 330 146 97 341 291 442 442 433 638 439 1549 15
2187 -94 141 -283 334 -421 430 -254 178 -538 289 -875 342 -125 20 -187 21
-1117 28 -542 4 -994 10 -1005 13 -31 9 -173 16 -179 9z m1839 -342 c232 -32
402 -82 565 -166 422 -219 646 -646 691 -1314 27 -407 -32 -745 -179 -1025
-240 -455 -670 -661 -1345 -642 -263 7 -339 29 -379 108 -17 32 -18 126 -18
1548 l0 1514 293 -6 c160 -3 328 -11 372 -17z"/>
</g>
</svg>
