<?xml version="1.0" standalone="no"?>
<!DOCTYPE svg PUBLIC "-//W3C//DTD SVG 20010904//EN"
 "http://www.w3.org/TR/2001/REC-SVG-20010904/DTD/svg10.dtd">
<svg version="1.0" xmlns="http://www.w3.org/2000/svg"
 width="600.000000pt" height="600.000000pt" viewBox="0 0 600.000000 600.000000"
 preserveAspectRatio="xMidYMid meet">
<metadata>
Created by potrace 1.13, written by Peter Selinger 2001-2015
</metadata>
<g transform="translate(0.000000,600.000000) scale(0.100000,-0.100000)"
fill="#000000" stroke="none">
<path d="M0 3000 l0 -3000 3000 0 3000 0 0 3000 0 3000 -3000 0 -3000 0 0
-3000z m5955 0 l0 -2955 -2955 0 -2955 0 -3 2945 c-1 1620 0 2951 3 2958 3 10
600 12 2957 10 l2953 -3 0 -2955z"/>
<path d="M400 3015 l0 -2625 2625 0 2625 0 0 2625 0 2625 -2625 0 -2625 0 0
-2625z m5205 0 l0 -2580 -2580 0 -2580 0 -3 2570 c-1 1414 0 2576 3 2583 3 10
525 12 2582 10 l2578 -3 0 -2580z"/>
<path d="M3975 4923 c-173 -21 -1786 -30 -2150 -12 -143 7 -276 13 -295 13
l-35 1 -3 -86 c-4 -118 1 -123 145 -154 191 -41 259 -71 293 -128 20 -31 20
-59 18 -1552 -3 -1502 -3 -1520 -23 -1547 -39 -53 -157 -98 -358 -138 -37 -7
-61 -18 -67 -30 -6 -10 -10 -58 -10 -106 l0 -87 113 7 c339 20 624 26 1297 26
410 0 819 -4 910 -10 91 -5 248 -12 350 -16 172 -6 187 -5 208 12 27 23 50 99
97 324 41 195 70 302 125 465 22 65 40 123 40 128 0 17 -111 57 -159 57 -59 0
-60 -1 -141 -150 -154 -282 -278 -403 -485 -477 l-80 -28 -375 0 c-314 0 -390
3 -468 18 -142 26 -205 67 -223 144 -5 21 -9 327 -9 681 l0 642 420 0 c333 0
427 -3 453 -14 70 -29 109 -110 142 -291 21 -114 30 -132 73 -146 38 -13 147
-8 162 7 6 6 6 50 -2 124 -16 149 -16 744 0 919 10 107 9 136 0 142 -26 16
-120 22 -159 10 -47 -14 -52 -24 -73 -147 -20 -118 -50 -214 -77 -248 -44 -56
-41 -56 -509 -56 l-430 0 0 691 0 691 468 -5 c513 -4 542 -7 667 -67 127 -61
221 -171 328 -386 63 -125 91 -154 148 -154 32 0 125 24 137 35 2 2 -11 47
-28 101 -52 162 -99 394 -120 584 -16 151 -27 189 -64 211 -37 22 -79 23 -251
2z"/>
</g>
</svg>
