<?xml version="1.0" standalone="no"?>
<!DOCTYPE svg PUBLIC "-//W3C//DTD SVG 20010904//EN"
 "http://www.w3.org/TR/2001/REC-SVG-20010904/DTD/svg10.dtd">
<svg version="1.0" xmlns="http://www.w3.org/2000/svg"
 width="600.000000pt" height="600.000000pt" viewBox="0 0 600.000000 600.000000"
 preserveAspectRatio="xMidYMid meet">
<metadata>
Created by potrace 1.13, written by Peter Selinger 2001-2015
</metadata>
<g transform="translate(0.000000,600.000000) scale(0.100000,-0.100000)"
fill="#000000" stroke="none">
<path d="M0 3000 l0 -3000 3000 0 3000 0 0 3000 0 3000 -3000 0 -3000 0 0
-3000z m5955 0 l0 -2955 -2955 0 -2955 0 -3 2945 c-1 1620 0 2951 3 2958 3 10
600 12 2957 10 l2953 -3 0 -2955z"/>
<path d="M400 3015 l0 -2625 2625 0 2625 0 0 2625 0 2625 -2625 0 -2625 0 0
-2625z m5205 0 l0 -2580 -2580 0 -2580 0 -3 2570 c-1 1414 0 2576 3 2583 3 10
525 12 2582 10 l2578 -3 0 -2580z"/>
<path d="M4135 4912 c-111 -14 -278 -16 -1155 -17 -728 0 -1065 4 -1164 12
-77 7 -142 10 -145 7 -3 -3 -6 -43 -6 -90 0 -112 6 -118 160 -150 194 -41 264
-75 291 -140 12 -28 14 -280 14 -1524 0 -1628 4 -1530 -58 -1582 -32 -27 -154
-71 -297 -108 -44 -11 -85 -26 -93 -34 -16 -16 -27 -112 -18 -161 l7 -38 112
6 c476 26 735 31 1040 17 171 -7 380 -15 464 -17 l151 -5 7 57 c9 70 1 133
-19 153 -9 10 -69 24 -157 38 -171 28 -258 53 -322 94 -81 51 -77 13 -77 755
l0 655 408 0 c403 0 408 0 452 -22 60 -31 94 -98 122 -243 28 -147 38 -170 84
-185 34 -12 148 -9 161 4 3 2 -1 76 -8 163 -16 198 -16 624 0 851 7 96 11 176
8 178 -12 12 -128 15 -161 4 -45 -14 -60 -42 -76 -140 -16 -94 -54 -214 -81
-252 -42 -58 -40 -58 -494 -58 l-415 0 0 731 0 731 468 -4 c438 -4 472 -6 544
-26 118 -32 185 -69 259 -143 68 -68 147 -190 215 -334 41 -85 63 -105 114
-105 36 0 140 26 140 35 0 3 -16 57 -35 119 -45 149 -91 374 -111 539 -21 179
-28 204 -67 227 -38 24 -80 24 -262 2z"/>
</g>
</svg>
