<?xml version="1.0" standalone="no"?>
<!DOCTYPE svg PUBLIC "-//W3C//DTD SVG 20010904//EN"
 "http://www.w3.org/TR/2001/REC-SVG-20010904/DTD/svg10.dtd">
<svg version="1.0" xmlns="http://www.w3.org/2000/svg"
 width="600.000000pt" height="600.000000pt" viewBox="0 0 600.000000 600.000000"
 preserveAspectRatio="xMidYMid meet">
<metadata>
Created by potrace 1.13, written by Peter Selinger 2001-2015
</metadata>
<g transform="translate(0.000000,600.000000) scale(0.100000,-0.100000)"
fill="#000000" stroke="none">
<path d="M0 3000 l0 -3000 3000 0 3000 0 0 3000 0 3000 -3000 0 -3000 0 0
-3000z m5955 0 l0 -2955 -2955 0 -2955 0 -3 2945 c-1 1620 0 2951 3 2958 3 10
600 12 2957 10 l2953 -3 0 -2955z"/>
<path d="M400 3015 l0 -2625 2625 0 2625 0 0 2625 0 2625 -2625 0 -2625 0 0
-2625z m5205 0 l0 -2580 -2580 0 -2580 0 -3 2570 c-1 1414 0 2576 3 2583 3 10
525 12 2582 10 l2578 -3 0 -2580z"/>
<path d="M2855 4944 c-114 -10 -276 -36 -368 -59 -430 -110 -837 -409 -1074
-790 -119 -190 -206 -407 -257 -637 -40 -181 -50 -289 -49 -498 2 -564 148
-1007 441 -1346 248 -285 622 -471 1099 -545 174 -27 660 -37 918 -20 288 19
741 84 824 117 73 29 71 8 71 603 0 348 4 548 11 581 21 97 88 144 249 174 71
13 89 21 113 46 24 27 27 38 27 103 0 39 -4 77 -8 83 -5 8 -39 8 -122 1 -148
-13 -1154 -13 -1330 0 -74 6 -137 8 -140 6 -2 -2 -6 -35 -8 -72 -5 -81 15
-133 56 -150 15 -5 55 -15 89 -21 159 -27 251 -72 291 -139 l27 -46 3 -467 3
-467 -38 -11 c-143 -40 -417 -52 -601 -24 -644 95 -1070 622 -1163 1434 -16
137 -16 468 0 595 47 383 180 692 386 901 161 163 354 261 605 309 126 25 414
26 550 2 125 -21 256 -60 346 -101 208 -97 341 -257 435 -524 26 -75 37 -96
60 -107 33 -18 99 -19 169 -4 46 10 51 14 47 33 -64 267 -105 505 -129 746
l-11 119 -111 25 c-276 64 -524 106 -776 131 -154 15 -539 27 -635 19z"/>
</g>
</svg>
