<?xml version="1.0" standalone="no"?>
<!DOCTYPE svg PUBLIC "-//W3C//DTD SVG 20010904//EN"
 "http://www.w3.org/TR/2001/REC-SVG-20010904/DTD/svg10.dtd">
<svg version="1.0" xmlns="http://www.w3.org/2000/svg"
 width="600.000000pt" height="600.000000pt" viewBox="0 0 600.000000 600.000000"
 preserveAspectRatio="xMidYMid meet">
<metadata>
Created by potrace 1.13, written by Peter Selinger 2001-2015
</metadata>
<g transform="translate(0.000000,600.000000) scale(0.100000,-0.100000)"
fill="#000000" stroke="none">
<path d="M0 3000 l0 -3000 3000 0 3000 0 0 3000 0 3000 -3000 0 -3000 0 0
-3000z m5955 0 l0 -2955 -2955 0 -2955 0 -3 2945 c-1 1620 0 2951 3 2958 3 10
600 12 2957 10 l2953 -3 0 -2955z"/>
<path d="M400 3015 l0 -2625 2625 0 2625 0 0 2625 0 2625 -2625 0 -2625 0 0
-2625z m5205 0 l0 -2580 -2580 0 -2580 0 -3 2570 c-1 1414 0 2576 3 2583 3 10
525 12 2582 10 l2578 -3 0 -2580z"/>
<path d="M1116 4885 c-10 -63 2 -140 24 -160 10 -9 71 -27 135 -40 148 -30
201 -56 232 -114 l23 -44 0 -1514 c0 -1269 -2 -1519 -14 -1547 -31 -74 -103
-109 -286 -140 -54 -9 -88 -20 -96 -31 -17 -23 -27 -107 -19 -156 l7 -42 93 6
c346 23 699 29 981 18 163 -6 338 -14 389 -18 l93 -6 7 70 c8 84 -10 140 -47
147 -248 47 -303 67 -341 120 l-22 31 -3 728 -3 727 776 0 775 0 0 -702 c0
-444 -4 -716 -10 -740 -22 -78 -103 -121 -290 -152 -54 -9 -88 -20 -96 -31
-17 -23 -27 -107 -19 -156 l7 -42 95 6 c52 4 229 12 393 18 285 12 624 5 976
-18 l91 -6 7 61 c7 66 -6 140 -28 148 -7 2 -65 15 -130 29 -130 26 -198 55
-230 98 l-21 28 0 1549 0 1549 21 28 c32 43 100 72 230 98 154 32 160 37 157
151 -1 47 -3 87 -5 89 -2 2 -67 0 -143 -5 -366 -25 -1113 -22 -1361 6 l-52 6
-7 -51 c-4 -28 -4 -69 0 -91 11 -67 29 -80 140 -100 171 -31 232 -62 259 -130
14 -36 16 -115 16 -680 l0 -640 -775 0 -775 0 0 638 c0 414 4 650 11 675 7 26
23 47 50 66 40 30 154 65 248 77 33 4 63 15 80 30 25 21 26 27 24 109 -1 48
-3 88 -5 90 -2 2 -67 0 -143 -5 -366 -25 -1113 -22 -1361 6 l-51 6 -7 -47z"/>
</g>
</svg>
