<?xml version="1.0" standalone="no"?>
<!DOCTYPE svg PUBLIC "-//W3C//DTD SVG 20010904//EN"
 "http://www.w3.org/TR/2001/REC-SVG-20010904/DTD/svg10.dtd">
<svg version="1.0" xmlns="http://www.w3.org/2000/svg"
 width="600.000000pt" height="600.000000pt" viewBox="0 0 600.000000 600.000000"
 preserveAspectRatio="xMidYMid meet">
<metadata>
Created by potrace 1.13, written by Peter Selinger 2001-2015
</metadata>
<g transform="translate(0.000000,600.000000) scale(0.100000,-0.100000)"
fill="#000000" stroke="none">
<path d="M0 3000 l0 -3000 3000 0 3000 0 0 3000 0 3000 -3000 0 -3000 0 0
-3000z m5955 0 l0 -2955 -2955 0 -2955 0 -3 2945 c-1 1620 0 2951 3 2958 3 10
600 12 2957 10 l2953 -3 0 -2955z"/>
<path d="M400 3015 l0 -2625 2625 0 2625 0 0 2625 0 2625 -2625 0 -2625 0 0
-2625z m5205 0 l0 -2580 -2580 0 -2580 0 -3 2570 c-1 1414 0 2576 3 2583 3 10
525 12 2582 10 l2578 -3 0 -2580z"/>
<path d="M2237 4903 c-25 -41 -14 -177 17 -202 8 -7 67 -23 132 -36 147 -30
200 -56 231 -114 l23 -44 0 -1515 c0 -1513 0 -1516 -21 -1558 -32 -68 -96 -97
-279 -128 -53 -9 -89 -20 -96 -31 -17 -23 -26 -98 -18 -151 l7 -47 92 6 c51 4
226 12 389 18 282 11 635 5 981 -18 l93 -6 7 70 c8 84 -10 140 -47 147 -244
46 -303 67 -342 120 l-21 27 0 1549 0 1549 21 28 c32 43 100 72 230 98 154 32
160 37 157 152 -1 47 -3 87 -5 89 -2 2 -67 -1 -143 -6 -366 -25 -1157 -21
-1361 6 -23 3 -44 2 -47 -3z"/>
</g>
</svg>
