<?xml version="1.0" standalone="no"?>
<!DOCTYPE svg PUBLIC "-//W3C//DTD SVG 20010904//EN"
 "http://www.w3.org/TR/2001/REC-SVG-20010904/DTD/svg10.dtd">
<svg version="1.0" xmlns="http://www.w3.org/2000/svg"
 width="600.000000pt" height="600.000000pt" viewBox="0 0 600.000000 600.000000"
 preserveAspectRatio="xMidYMid meet">
<metadata>
Created by potrace 1.13, written by Peter Selinger 2001-2015
</metadata>
<g transform="translate(0.000000,600.000000) scale(0.100000,-0.100000)"
fill="#000000" stroke="none">
<path d="M0 3000 l0 -3000 3000 0 3000 0 0 3000 0 3000 -3000 0 -3000 0 0
-3000z m5955 0 l0 -2955 -2955 0 -2955 0 -3 2945 c-1 1620 0 2951 3 2958 3 10
600 12 2957 10 l2953 -3 0 -2955z"/>
<path d="M400 3015 l0 -2625 2625 0 2625 0 0 2625 0 2625 -2625 0 -2625 0 0
-2625z m5205 0 l0 -2580 -2580 0 -2580 0 -3 2570 c-1 1414 0 2576 3 2583 3 10
525 12 2582 10 l2578 -3 0 -2580z"/>
<path d="M2530 4933 c0 -100 6 -106 125 -128 112 -20 172 -49 197 -95 18 -34
18 -82 15 -1465 -3 -1415 -3 -1431 -24 -1525 -58 -255 -162 -447 -353 -645
-85 -87 -100 -111 -100 -150 0 -29 73 -115 97 -115 18 0 180 116 347 248 402
318 552 569 623 1039 14 94 17 273 22 1353 5 947 9 1250 18 1266 24 42 100 73
225 95 91 15 104 30 101 121 -1 39 -4 72 -5 73 -2 2 -48 -1 -103 -6 -280 -24
-994 -20 -1152 8 l-33 5 0 -79z"/>
</g>
</svg>
