<?xml version="1.0" standalone="no"?>
<!DOCTYPE svg PUBLIC "-//W3C//DTD SVG 20010904//EN"
 "http://www.w3.org/TR/2001/REC-SVG-20010904/DTD/svg10.dtd">
<svg version="1.0" xmlns="http://www.w3.org/2000/svg"
 width="600.000000pt" height="600.000000pt" viewBox="0 0 600.000000 600.000000"
 preserveAspectRatio="xMidYMid meet">
<metadata>
Created by potrace 1.13, written by Peter Selinger 2001-2015
</metadata>
<g transform="translate(0.000000,600.000000) scale(0.100000,-0.100000)"
fill="#000000" stroke="none">
<path d="M0 3000 l0 -3000 3000 0 3000 0 0 3000 0 3000 -3000 0 -3000 0 0
-3000z m5955 0 l0 -2955 -2955 0 -2955 0 -3 2945 c-1 1620 0 2951 3 2958 3 10
600 12 2957 10 l2953 -3 0 -2955z"/>
<path d="M400 3015 l0 -2625 2625 0 2625 0 0 2625 0 2625 -2625 0 -2625 0 0
-2625z m5205 0 l0 -2580 -2580 0 -2580 0 -3 2570 c-1 1414 0 2576 3 2583 3 10
525 12 2582 10 l2578 -3 0 -2580z"/>
<path d="M1245 4885 c-10 -63 1 -136 24 -158 11 -12 54 -26 117 -38 54 -10
119 -26 144 -35 58 -21 107 -68 120 -114 14 -48 13 -3012 0 -3061 -20 -72 -95
-116 -245 -144 -49 -9 -100 -19 -113 -21 -35 -7 -55 -64 -50 -141 2 -34 7 -65
10 -69 4 -3 105 0 225 7 281 17 812 17 1071 0 112 -7 206 -10 209 -7 4 3 8 41
11 83 6 107 -3 116 -133 144 -115 24 -179 53 -209 93 -21 27 -21 34 -24 804
-2 667 0 775 12 762 24 -26 1127 -1412 1163 -1462 19 -26 37 -63 40 -82 4 -29
1 -39 -22 -60 -32 -30 -99 -52 -186 -62 -34 -4 -70 -15 -82 -25 -20 -15 -22
-26 -21 -104 1 -47 4 -88 7 -91 3 -3 113 0 244 7 297 16 910 16 1186 0 115 -7
212 -10 215 -6 13 12 14 155 2 185 -14 33 -15 34 -140 66 -137 35 -225 80
-304 155 -36 35 -380 461 -765 947 l-698 883 181 177 c296 290 894 871 994
964 110 104 185 144 353 188 147 38 151 42 147 164 l-3 91 -30 -1 c-16 -1
-116 -7 -222 -13 -251 -14 -537 -13 -803 3 -118 8 -217 12 -220 9 -3 -3 -5
-44 -5 -93 0 -113 8 -123 113 -140 86 -13 162 -42 188 -71 23 -25 20 -67 -7
-120 -14 -29 -240 -262 -680 -704 l-659 -660 3 712 c2 706 2 712 23 740 32 43
100 72 230 98 153 32 160 38 157 147 -1 44 -5 84 -10 89 -4 4 -69 3 -143 -2
-361 -24 -1110 -20 -1357 7 l-51 6 -7 -47z"/>
</g>
</svg>
