<?xml version="1.0" standalone="no"?>
<!DOCTYPE svg PUBLIC "-//W3C//DTD SVG 20010904//EN"
 "http://www.w3.org/TR/2001/REC-SVG-20010904/DTD/svg10.dtd">
<svg version="1.0" xmlns="http://www.w3.org/2000/svg"
 width="600.000000pt" height="600.000000pt" viewBox="0 0 600.000000 600.000000"
 preserveAspectRatio="xMidYMid meet">
<metadata>
Created by potrace 1.13, written by Peter Selinger 2001-2015
</metadata>
<g transform="translate(0.000000,600.000000) scale(0.100000,-0.100000)"
fill="#000000" stroke="none">
<path d="M0 3000 l0 -3000 3000 0 3000 0 0 3000 0 3000 -3000 0 -3000 0 0
-3000z m5955 0 l0 -2955 -2955 0 -2955 0 -3 2945 c-1 1620 0 2951 3 2958 3 10
600 12 2957 10 l2953 -3 0 -2955z"/>
<path d="M400 3015 l0 -2625 2625 0 2625 0 0 2625 0 2625 -2625 0 -2625 0 0
-2625z m5205 0 l0 -2580 -2580 0 -2580 0 -3 2570 c-1 1414 0 2576 3 2583 3 10
525 12 2582 10 l2578 -3 0 -2580z"/>
<path d="M1664 4916 c-11 -61 0 -145 22 -167 14 -13 57 -27 135 -43 167 -34
231 -73 250 -153 5 -21 9 -688 9 -1523 0 -1437 -1 -1486 -19 -1527 -32 -70
-94 -100 -306 -148 -136 -30 -145 -39 -145 -139 0 -39 4 -77 9 -84 7 -12 39
-12 192 -2 108 7 529 14 1014 17 698 5 891 3 1217 -12 421 -20 436 -19 457 33
5 15 22 108 36 207 30 208 65 403 100 560 14 60 25 114 25 118 0 17 -111 57
-160 57 -60 0 -76 -15 -109 -102 -95 -249 -226 -428 -363 -496 -117 -57 -189
-65 -562 -59 -444 6 -564 29 -623 117 l-23 33 0 1456 c0 1391 1 1458 19 1496
36 80 115 119 313 155 133 24 141 32 136 146 -1 45 -5 85 -8 88 -3 3 -66 1
-140 -4 -365 -25 -1167 -22 -1417 6 l-52 6 -7 -36z"/>
</g>
</svg>
