<?xml version="1.0" standalone="no"?>
<!DOCTYPE svg PUBLIC "-//W3C//DTD SVG 20010904//EN"
 "http://www.w3.org/TR/2001/REC-SVG-20010904/DTD/svg10.dtd">
<svg version="1.0" xmlns="http://www.w3.org/2000/svg"
 width="600.000000pt" height="600.000000pt" viewBox="0 0 600.000000 600.000000"
 preserveAspectRatio="xMidYMid meet">
<metadata>
Created by potrace 1.13, written by Peter Selinger 2001-2015
</metadata>
<g transform="translate(0.000000,600.000000) scale(0.100000,-0.100000)"
fill="#000000" stroke="none">
<path d="M0 3000 l0 -3000 3000 0 3000 0 0 3000 0 3000 -3000 0 -3000 0 0
-3000z m5955 0 l0 -2955 -2955 0 -2955 0 -3 2945 c-1 1620 0 2951 3 2958 3 10
600 12 2957 10 l2953 -3 0 -2955z"/>
<path d="M400 3015 l0 -2625 2625 0 2625 0 0 2625 0 2625 -2625 0 -2625 0 0
-2625z m5205 0 l0 -2580 -2580 0 -2580 0 -3 2570 c-1 1414 0 2576 3 2583 3 10
525 12 2582 10 l2578 -3 0 -2580z"/>
<path d="M1134 4706 c-10 -40 1 -135 17 -151 8 -8 57 -23 109 -35 126 -27 180
-54 204 -103 18 -38 18 -50 -8 -620 -15 -320 -35 -751 -46 -957 -11 -206 -26
-521 -35 -700 -9 -179 -20 -341 -25 -361 -21 -78 -80 -119 -235 -162 -48 -14
-92 -30 -98 -36 -14 -14 -21 -141 -9 -158 6 -10 30 -11 108 -3 205 20 529 23
718 6 99 -9 181 -14 183 -12 12 12 14 119 3 145 -14 34 -20 37 -115 57 -155
32 -216 71 -230 146 -6 30 23 781 60 1553 8 171 20 425 26 565 6 140 12 256
13 257 1 2 259 -617 573 -1375 l571 -1377 41 -3 c52 -4 73 8 103 60 14 24 249
568 524 1211 274 642 501 1167 504 1167 6 0 51 -842 70 -1295 5 -126 15 -341
21 -476 8 -179 8 -256 0 -286 -21 -76 -94 -118 -266 -153 -87 -18 -95 -28 -95
-123 l0 -79 58 6 c257 28 725 33 1041 11 118 -8 216 -13 218 -11 12 12 14 119
3 145 -13 33 -15 34 -115 55 -143 30 -203 65 -225 130 -9 29 -27 344 -85 1486
-14 272 -32 630 -41 795 -9 165 -14 322 -11 348 4 51 30 87 78 112 21 11 208
55 233 55 15 0 36 65 36 112 0 82 3 81 -156 69 -76 -6 -242 -13 -369 -16 -268
-7 -328 -16 -365 -54 -17 -17 -181 -394 -499 -1149 -261 -617 -476 -1121 -478
-1118 -2 2 -213 509 -468 1127 -334 808 -471 1130 -489 1145 -38 34 -126 42
-546 55 -212 6 -411 13 -442 16 -55 5 -57 5 -64 -21z"/>
</g>
</svg>
