<?xml version="1.0" standalone="no"?>
<!DOCTYPE svg PUBLIC "-//W3C//DTD SVG 20010904//EN"
 "http://www.w3.org/TR/2001/REC-SVG-20010904/DTD/svg10.dtd">
<svg version="1.0" xmlns="http://www.w3.org/2000/svg"
 width="600.000000pt" height="600.000000pt" viewBox="0 0 600.000000 600.000000"
 preserveAspectRatio="xMidYMid meet">
<metadata>
Created by potrace 1.13, written by Peter Selinger 2001-2015
</metadata>
<g transform="translate(0.000000,600.000000) scale(0.100000,-0.100000)"
fill="#000000" stroke="none">
<path d="M0 3000 l0 -3000 3000 0 3000 0 0 3000 0 3000 -3000 0 -3000 0 0
-3000z m5955 0 l0 -2955 -2955 0 -2955 0 -3 2945 c-1 1620 0 2951 3 2958 3 10
600 12 2957 10 l2953 -3 0 -2955z"/>
<path d="M400 3015 l0 -2625 2625 0 2625 0 0 2625 0 2625 -2625 0 -2625 0 0
-2625z m5205 0 l0 -2580 -2580 0 -2580 0 -3 2570 c-1 1414 0 2576 3 2583 3 10
525 12 2582 10 l2578 -3 0 -2580z"/>
<path d="M1226 4919 c-9 -49 -7 -115 5 -142 15 -34 39 -44 147 -63 104 -18
186 -55 216 -97 21 -28 21 -34 24 -1560 l2 -1532 -22 -45 c-30 -58 -91 -92
-218 -121 -167 -37 -173 -42 -168 -159 l3 -75 50 1 c28 0 168 6 312 14 254 13
454 9 749 -17 69 -5 71 -5 77 18 4 13 7 50 7 81 0 87 -18 103 -160 134 -130
28 -214 66 -245 107 -20 28 -20 37 -23 1315 -1 775 1 1283 7 1277 5 -6 516
-658 1136 -1450 620 -792 1139 -1451 1153 -1463 53 -46 101 -62 194 -62 47 0
93 3 102 6 15 6 16 165 16 1708 0 1113 4 1716 11 1745 5 24 19 57 30 72 28 39
111 77 220 99 127 26 142 42 137 151 -1 43 -5 80 -8 82 -3 3 -34 1 -70 -4
-114 -17 -736 -23 -919 -9 -91 7 -177 13 -190 14 -21 1 -26 -5 -33 -34 -12
-52 1 -127 26 -156 17 -19 39 -28 109 -40 188 -32 268 -70 305 -144 l22 -46
-2 -1041 -3 -1041 -958 1213 c-855 1083 -962 1216 -1003 1235 -41 20 -67 23
-322 31 -152 4 -320 10 -372 13 -52 3 -150 8 -216 11 l-121 5 -7 -31z"/>
</g>
</svg>
