<?xml version="1.0" standalone="no"?>
<!DOCTYPE svg PUBLIC "-//W3C//DTD SVG 20010904//EN"
 "http://www.w3.org/TR/2001/REC-SVG-20010904/DTD/svg10.dtd">
<svg version="1.0" xmlns="http://www.w3.org/2000/svg"
 width="600.000000pt" height="600.000000pt" viewBox="0 0 600.000000 600.000000"
 preserveAspectRatio="xMidYMid meet">
<metadata>
Created by potrace 1.13, written by Peter Selinger 2001-2015
</metadata>
<g transform="translate(0.000000,600.000000) scale(0.100000,-0.100000)"
fill="#000000" stroke="none">
<path d="M0 3000 l0 -3000 3000 0 3000 0 0 3000 0 3000 -3000 0 -3000 0 0
-3000z m5955 0 l0 -2955 -2955 0 -2955 0 -3 2945 c-1 1620 0 2951 3 2958 3 10
600 12 2957 10 l2953 -3 0 -2955z"/>
<path d="M400 3015 l0 -2625 2625 0 2625 0 0 2625 0 2625 -2625 0 -2625 0 0
-2625z m5205 0 l0 -2580 -2580 0 -2580 0 -3 2570 c-1 1414 0 2576 3 2583 3 10
525 12 2582 10 l2578 -3 0 -2580z"/>
<path d="M2833 4979 c-854 -82 -1562 -721 -1732 -1564 -42 -208 -45 -532 -6
-753 86 -495 362 -941 760 -1228 108 -77 351 -200 492 -248 333 -114 739 -138
1097 -65 401 81 819 329 1083 641 216 254 369 570 435 898 21 104 23 141 23
385 -1 255 -2 277 -28 398 -118 552 -419 988 -872 1262 -355 215 -818 316
-1252 274z m307 -333 c210 -40 381 -134 545 -300 249 -250 400 -612 472 -1126
25 -185 25 -656 -1 -795 -55 -301 -183 -561 -366 -745 -192 -194 -416 -290
-680 -290 -591 0 -1023 486 -1179 1325 -63 336 -72 760 -22 999 83 398 321
728 623 865 79 36 185 68 263 81 77 12 248 5 345 -14z"/>
</g>
</svg>
