<?xml version="1.0" standalone="no"?>
<!DOCTYPE svg PUBLIC "-//W3C//DTD SVG 20010904//EN"
 "http://www.w3.org/TR/2001/REC-SVG-20010904/DTD/svg10.dtd">
<svg version="1.0" xmlns="http://www.w3.org/2000/svg"
 width="600.000000pt" height="600.000000pt" viewBox="0 0 600.000000 600.000000"
 preserveAspectRatio="xMidYMid meet">
<metadata>
Created by potrace 1.13, written by Peter Selinger 2001-2015
</metadata>
<g transform="translate(0.000000,600.000000) scale(0.100000,-0.100000)"
fill="#000000" stroke="none">
<path d="M0 3000 l0 -3000 3000 0 3000 0 0 3000 0 3000 -3000 0 -3000 0 0
-3000z m5955 0 l0 -2955 -2955 0 -2955 0 -3 2945 c-1 1620 0 2951 3 2958 3 10
600 12 2957 10 l2953 -3 0 -2955z"/>
<path d="M400 3015 l0 -2625 2625 0 2625 0 0 2625 0 2625 -2625 0 -2625 0 0
-2625z m5205 0 l0 -2580 -2580 0 -2580 0 -3 2570 c-1 1414 0 2576 3 2583 3 10
525 12 2582 10 l2578 -3 0 -2580z"/>
<path d="M1676 4915 c-19 -51 2 -181 34 -200 7 -4 60 -16 119 -26 182 -31 258
-68 292 -143 18 -39 19 -102 19 -1539 0 -1613 2 -1536 -51 -1586 -32 -29 -115
-59 -244 -86 -140 -30 -145 -36 -145 -153 l0 -85 93 6 c429 30 959 32 1450 6
110 -6 201 -9 203 -6 12 12 15 128 4 161 -14 43 -44 61 -120 71 -30 4 -98 16
-150 27 -177 38 -246 75 -281 153 -17 37 -19 79 -19 617 l0 576 338 5 c253 3
357 9 419 21 420 82 763 336 904 667 122 286 117 651 -12 915 -135 276 -425
474 -799 544 -180 34 -316 40 -940 40 -542 0 -865 8 -1046 25 -51 5 -62 4 -68
-10z m1529 -325 c277 -32 433 -129 531 -335 55 -112 82 -233 90 -396 20 -383
-96 -636 -349 -759 -135 -65 -215 -82 -419 -87 l-178 -5 0 796 0 796 118 0
c64 0 158 -5 207 -10z"/>
</g>
</svg>
