<?xml version="1.0" standalone="no"?>
<!DOCTYPE svg PUBLIC "-//W3C//DTD SVG 20010904//EN"
 "http://www.w3.org/TR/2001/REC-SVG-20010904/DTD/svg10.dtd">
<svg version="1.0" xmlns="http://www.w3.org/2000/svg"
 width="600.000000pt" height="600.000000pt" viewBox="0 0 600.000000 600.000000"
 preserveAspectRatio="xMidYMid meet">
<metadata>
Created by potrace 1.13, written by Peter Selinger 2001-2015
</metadata>
<g transform="translate(0.000000,600.000000) scale(0.100000,-0.100000)"
fill="#000000" stroke="none">
<path d="M0 3000 l0 -3000 3000 0 3000 0 0 3000 0 3000 -3000 0 -3000 0 0
-3000z m5955 0 l0 -2955 -2955 0 -2955 0 -3 2945 c-1 1620 0 2951 3 2958 3 10
600 12 2957 10 l2953 -3 0 -2955z"/>
<path d="M400 3015 l0 -2625 2625 0 2625 0 0 2625 0 2625 -2625 0 -2625 0 0
-2625z m5205 0 l0 -2580 -2580 0 -2580 0 -3 2570 c-1 1414 0 2576 3 2583 3 10
525 12 2582 10 l2578 -3 0 -2580z"/>
<path d="M2735 5173 c-152 -14 -380 -77 -530 -147 -297 -139 -554 -368 -732
-651 -48 -75 -139 -270 -167 -356 -135 -418 -99 -922 92 -1308 96 -194 231
-368 382 -495 225 -189 445 -297 758 -372 266 -64 394 -142 747 -454 283 -251
369 -319 507 -405 190 -119 323 -158 553 -159 138 0 156 2 223 26 40 14 105
46 145 71 71 45 207 161 207 177 0 5 -12 23 -27 40 -24 30 -30 32 -72 27 -25
-3 -72 -11 -103 -18 -77 -17 -198 0 -282 40 -80 37 -201 125 -328 238 -275
244 -448 356 -641 415 -37 11 -66 22 -65 24 2 2 51 20 108 39 555 193 958 668
1077 1270 26 131 26 510 -1 650 -150 811 -831 1362 -1671 1353 -77 -1 -158 -3
-180 -5z m330 -302 c383 -101 664 -448 779 -962 51 -231 61 -326 61 -609 0
-242 -2 -274 -23 -369 -57 -252 -159 -450 -311 -601 -179 -178 -393 -261 -632
-246 -478 30 -823 424 -958 1093 -54 264 -71 664 -37 853 80 449 353 772 721
854 96 22 291 15 400 -13z"/>
</g>
</svg>
