<?xml version="1.0" standalone="no"?>
<!DOCTYPE svg PUBLIC "-//W3C//DTD SVG 20010904//EN"
 "http://www.w3.org/TR/2001/REC-SVG-20010904/DTD/svg10.dtd">
<svg version="1.0" xmlns="http://www.w3.org/2000/svg"
 width="600.000000pt" height="600.000000pt" viewBox="0 0 600.000000 600.000000"
 preserveAspectRatio="xMidYMid meet">
<metadata>
Created by potrace 1.13, written by Peter Selinger 2001-2015
</metadata>
<g transform="translate(0.000000,600.000000) scale(0.100000,-0.100000)"
fill="#000000" stroke="none">
<path d="M0 3000 l0 -3000 3000 0 3000 0 0 3000 0 3000 -3000 0 -3000 0 0
-3000z m5955 0 l0 -2955 -2955 0 -2955 0 -3 2945 c-1 1620 0 2951 3 2958 3 10
600 12 2957 10 l2953 -3 0 -2955z"/>
<path d="M400 3015 l0 -2625 2625 0 2625 0 0 2625 0 2625 -2625 0 -2625 0 0
-2625z m5205 0 l0 -2580 -2580 0 -2580 0 -3 2570 c-1 1414 0 2576 3 2583 3 10
525 12 2582 10 l2578 -3 0 -2580z"/>
<path d="M1196 4918 c-18 -67 2 -171 37 -190 12 -7 67 -20 123 -30 175 -30
251 -68 285 -142 18 -39 19 -102 19 -1538 0 -1686 6 -1556 -75 -1604 -52 -30
-78 -38 -220 -69 -140 -30 -145 -36 -145 -153 l0 -85 93 6 c442 30 954 32
1450 6 110 -6 201 -8 204 -5 3 3 8 36 11 74 4 67 -10 120 -38 137 -5 3 -63 15
-127 26 -278 46 -374 93 -403 197 -6 24 -10 261 -10 655 l0 617 119 0 120 0
469 -697 c259 -384 500 -732 536 -774 79 -94 163 -164 236 -198 55 -25 59 -25
534 -43 382 -14 482 -15 488 -5 12 17 5 164 -8 177 -6 6 -71 31 -144 56 -168
56 -240 95 -310 164 -34 35 -228 309 -517 732 -255 372 -463 680 -463 685 0 4
21 17 48 27 171 69 356 215 464 366 132 185 186 372 176 609 -20 434 -289 762
-748 909 -226 72 -353 82 -1085 82 -539 0 -875 8 -1051 25 -58 6 -62 5 -68
-17z m1529 -318 c273 -31 435 -130 531 -325 73 -149 88 -219 88 -435 1 -164
-2 -194 -22 -265 -52 -178 -143 -295 -286 -365 -136 -67 -260 -89 -488 -90
l-148 0 0 745 0 745 118 0 c64 0 158 -5 207 -10z"/>
</g>
</svg>
