<?xml version="1.0" standalone="no"?>
<!DOCTYPE svg PUBLIC "-//W3C//DTD SVG 20010904//EN"
 "http://www.w3.org/TR/2001/REC-SVG-20010904/DTD/svg10.dtd">
<svg version="1.0" xmlns="http://www.w3.org/2000/svg"
 width="600.000000pt" height="600.000000pt" viewBox="0 0 600.000000 600.000000"
 preserveAspectRatio="xMidYMid meet">
<metadata>
Created by potrace 1.13, written by Peter Selinger 2001-2015
</metadata>
<g transform="translate(0.000000,600.000000) scale(0.100000,-0.100000)"
fill="#000000" stroke="none">
<path d="M0 3000 l0 -3000 3000 0 3000 0 0 3000 0 3000 -3000 0 -3000 0 0
-3000z m5955 0 l0 -2955 -2955 0 -2955 0 -3 2945 c-1 1620 0 2951 3 2958 3 10
600 12 2957 10 l2953 -3 0 -2955z"/>
<path d="M400 3015 l0 -2625 2625 0 2625 0 0 2625 0 2625 -2625 0 -2625 0 0
-2625z m5205 0 l0 -2580 -2580 0 -2580 0 -3 2570 c-1 1414 0 2576 3 2583 3 10
525 12 2582 10 l2578 -3 0 -2580z"/>
<path d="M2825 5019 c-212 -22 -412 -92 -587 -205 -85 -54 -217 -180 -274
-260 -155 -217 -220 -503 -184 -804 24 -190 78 -322 191 -463 168 -208 389
-344 813 -497 423 -153 620 -259 753 -404 188 -206 175 -583 -28 -786 -67 -66
-196 -136 -299 -162 -85 -20 -383 -17 -490 5 -340 73 -548 284 -716 726 -63
166 -81 187 -171 197 -57 7 -163 -12 -163 -29 0 -7 9 -59 20 -117 48 -246 120
-743 120 -828 0 -28 318 -146 543 -201 186 -46 311 -62 547 -68 361 -9 571 26
806 138 300 142 491 372 577 698 29 111 31 125 31 311 0 178 -3 203 -26 291
-46 170 -126 300 -274 446 -46 45 -125 109 -176 143 -127 85 -379 205 -583
280 -451 166 -684 288 -814 425 -97 103 -136 239 -113 398 31 214 180 364 425
427 218 55 504 26 706 -72 72 -34 101 -57 181 -137 101 -102 164 -196 221
-332 17 -41 41 -85 53 -98 41 -46 111 -61 210 -44 l38 6 -5 41 c-3 23 -17 118
-31 211 -14 94 -34 254 -43 358 l-17 187 -56 21 c-444 169 -834 235 -1185 198z"/>
</g>
</svg>
