<?xml version="1.0" standalone="no"?>
<!DOCTYPE svg PUBLIC "-//W3C//DTD SVG 20010904//EN"
 "http://www.w3.org/TR/2001/REC-SVG-20010904/DTD/svg10.dtd">
<svg version="1.0" xmlns="http://www.w3.org/2000/svg"
 width="600.000000pt" height="600.000000pt" viewBox="0 0 600.000000 600.000000"
 preserveAspectRatio="xMidYMid meet">
<metadata>
Created by potrace 1.13, written by Peter Selinger 2001-2015
</metadata>
<g transform="translate(0.000000,600.000000) scale(0.100000,-0.100000)"
fill="#000000" stroke="none">
<path d="M0 3000 l0 -3000 3000 0 3000 0 0 3000 0 3000 -3000 0 -3000 0 0
-3000z m5955 0 l0 -2955 -2955 0 -2955 0 -3 2945 c-1 1620 0 2951 3 2958 3 10
600 12 2957 10 l2953 -3 0 -2955z"/>
<path d="M400 3015 l0 -2625 2625 0 2625 0 0 2625 0 2625 -2625 0 -2625 0 0
-2625z m5205 0 l0 -2580 -2580 0 -2580 0 -3 2570 c-1 1414 0 2576 3 2583 3 10
525 12 2582 10 l2578 -3 0 -2580z"/>
<path d="M1390 4828 c-37 -20 -49 -53 -70 -205 -34 -235 -58 -352 -105 -518
-24 -88 -45 -163 -45 -167 0 -12 105 -42 152 -42 63 0 77 15 144 147 75 149
130 232 200 298 151 142 265 169 726 169 l278 0 0 -1553 c0 -984 -4 -1565 -10
-1586 -22 -77 -75 -106 -260 -141 -131 -25 -140 -33 -140 -134 0 -39 4 -77 9
-85 7 -11 44 -11 227 0 277 17 813 17 1097 0 121 -7 221 -10 224 -7 3 3 8 34
10 69 4 47 1 71 -11 95 -18 34 -23 36 -185 72 -109 23 -173 57 -198 103 -17
30 -18 127 -21 1600 l-2 1567 277 0 c389 0 519 -20 642 -99 106 -69 227 -230
312 -416 34 -75 66 -100 124 -99 31 1 139 28 153 39 1 1 -7 28 -18 61 -50 142
-119 470 -140 661 -12 105 -16 120 -43 150 -31 34 -71 37 -264 17 -163 -17
-281 -19 -1423 -19 -915 0 -1269 3 -1335 12 -159 21 -277 25 -305 11z"/>
</g>
</svg>
