<?xml version="1.0" standalone="no"?>
<!DOCTYPE svg PUBLIC "-//W3C//DTD SVG 20010904//EN"
 "http://www.w3.org/TR/2001/REC-SVG-20010904/DTD/svg10.dtd">
<svg version="1.0" xmlns="http://www.w3.org/2000/svg"
 width="600.000000pt" height="600.000000pt" viewBox="0 0 600.000000 600.000000"
 preserveAspectRatio="xMidYMid meet">
<metadata>
Created by potrace 1.13, written by Peter Selinger 2001-2015
</metadata>
<g transform="translate(0.000000,600.000000) scale(0.100000,-0.100000)"
fill="#000000" stroke="none">
<path d="M0 3000 l0 -3000 3000 0 3000 0 0 3000 0 3000 -3000 0 -3000 0 0
-3000z m5955 0 l0 -2955 -2955 0 -2955 0 -3 2945 c-1 1620 0 2951 3 2958 3 10
600 12 2957 10 l2953 -3 0 -2955z"/>
<path d="M400 3015 l0 -2625 2625 0 2625 0 0 2625 0 2625 -2625 0 -2625 0 0
-2625z m5205 0 l0 -2580 -2580 0 -2580 0 -3 2570 c-1 1414 0 2576 3 2583 3 10
525 12 2582 10 l2578 -3 0 -2580z"/>
<path d="M1066 4865 c-10 -27 -7 -142 5 -169 13 -28 43 -42 114 -51 75 -10
176 -36 216 -56 47 -23 87 -71 94 -112 3 -18 7 -525 9 -1127 3 -1107 4 -1130
42 -1360 90 -548 455 -860 1119 -957 94 -14 187 -17 430 -18 280 0 322 2 438
23 571 103 903 406 1017 931 48 219 50 270 50 1388 0 727 3 1068 11 1103 24
113 96 152 362 195 59 9 80 50 73 143 -2 41 -6 76 -9 78 -2 2 -41 -2 -88 -8
-113 -17 -907 -17 -1044 -1 -54 7 -102 10 -105 7 -3 -3 -7 -41 -9 -85 -3 -75
-2 -80 26 -107 23 -23 41 -30 90 -36 85 -10 200 -43 251 -72 26 -15 50 -40 62
-65 21 -40 21 -49 17 -1122 -3 -1062 -4 -1084 -25 -1195 -75 -388 -225 -604
-498 -713 -119 -48 -238 -69 -415 -76 -253 -9 -438 24 -599 108 -271 141 -418
449 -450 944 -14 215 -13 1940 1 2005 24 111 98 148 396 196 48 7 66 48 61
140 -2 40 -5 75 -8 77 -3 3 -63 1 -135 -4 -360 -25 -1247 -20 -1451 7 -33 5
-42 2 -48 -11z"/>
</g>
</svg>
