<?xml version="1.0" standalone="no"?>
<!DOCTYPE svg PUBLIC "-//W3C//DTD SVG 20010904//EN"
 "http://www.w3.org/TR/2001/REC-SVG-20010904/DTD/svg10.dtd">
<svg version="1.0" xmlns="http://www.w3.org/2000/svg"
 width="600.000000pt" height="600.000000pt" viewBox="0 0 600.000000 600.000000"
 preserveAspectRatio="xMidYMid meet">
<metadata>
Created by potrace 1.13, written by Peter Selinger 2001-2015
</metadata>
<g transform="translate(0.000000,600.000000) scale(0.100000,-0.100000)"
fill="#000000" stroke="none">
<path d="M0 3000 l0 -3000 3000 0 3000 0 0 3000 0 3000 -3000 0 -3000 0 0
-3000z m5955 0 l0 -2955 -2955 0 -2955 0 -3 2945 c-1 1620 0 2951 3 2958 3 10
600 12 2957 10 l2953 -3 0 -2955z"/>
<path d="M400 3015 l0 -2625 2625 0 2625 0 0 2625 0 2625 -2625 0 -2625 0 0
-2625z m5205 0 l0 -2580 -2580 0 -2580 0 -3 2570 c-1 1414 0 2576 3 2583 3 10
525 12 2582 10 l2578 -3 0 -2580z"/>
<path d="M1108 4884 c-12 -11 -9 -137 3 -173 14 -41 28 -47 129 -61 170 -22
244 -54 285 -124 13 -23 332 -805 709 -1737 376 -933 691 -1710 700 -1727 19
-37 41 -44 121 -40 l59 3 721 1726 c397 949 732 1743 744 1763 47 76 136 117
293 137 84 11 91 14 110 43 16 26 19 43 15 109 -3 43 -7 80 -9 82 -2 2 -35 -1
-73 -8 -93 -15 -912 -15 -1050 1 -77 9 -101 8 -107 -1 -4 -7 -8 -44 -8 -83 0
-78 23 -124 62 -124 42 0 222 -42 257 -59 62 -32 76 -55 75 -125 -1 -56 -36
-150 -455 -1198 -249 -626 -456 -1134 -460 -1130 -4 4 -195 516 -424 1137
-316 854 -419 1144 -423 1187 -4 55 -3 59 30 92 39 39 130 71 230 81 82 8 113
21 127 51 12 28 15 153 3 171 -6 9 -39 10 -142 3 -347 -25 -1254 -21 -1470 6
-25 3 -48 2 -52 -2z"/>
</g>
</svg>
