<?xml version="1.0" standalone="no"?>
<!DOCTYPE svg PUBLIC "-//W3C//DTD SVG 20010904//EN"
 "http://www.w3.org/TR/2001/REC-SVG-20010904/DTD/svg10.dtd">
<svg version="1.0" xmlns="http://www.w3.org/2000/svg"
 width="600.000000pt" height="600.000000pt" viewBox="0 0 600.000000 600.000000"
 preserveAspectRatio="xMidYMid meet">
<metadata>
Created by potrace 1.13, written by Peter Selinger 2001-2015
</metadata>
<g transform="translate(0.000000,600.000000) scale(0.100000,-0.100000)"
fill="#000000" stroke="none">
<path d="M0 3000 l0 -3000 3000 0 3000 0 0 3000 0 3000 -3000 0 -3000 0 0
-3000z m5955 0 l0 -2955 -2955 0 -2955 0 -3 2945 c-1 1620 0 2951 3 2958 3 10
600 12 2957 10 l2953 -3 0 -2955z"/>
<path d="M400 3015 l0 -2625 2625 0 2625 0 0 2625 0 2625 -2625 0 -2625 0 0
-2625z m5205 0 l0 -2580 -2580 0 -2580 0 -3 2570 c-1 1414 0 2576 3 2583 3 10
525 12 2582 10 l2578 -3 0 -2580z"/>
<path d="M3130 4574 c-10 -3 -144 -369 -405 -1114 -215 -609 -393 -1105 -396
-1102 -16 19 -663 1832 -663 1859 0 63 83 113 209 128 130 15 154 40 140 152
l-7 56 -63 -6 c-231 -22 -637 -30 -936 -18 -173 6 -342 14 -376 18 l-63 6 0
-80 c0 -49 5 -86 13 -97 9 -12 46 -23 127 -37 130 -22 190 -47 225 -93 13 -17
273 -693 583 -1515 308 -817 569 -1495 580 -1508 17 -19 31 -23 80 -23 l59 0
393 1118 c216 614 393 1118 394 1119 2 2 187 -489 412 -1090 310 -829 415
-1099 436 -1119 22 -24 35 -28 81 -28 51 0 56 2 65 28 295 835 1040 2921 1057
2957 41 90 92 124 220 145 130 22 139 25 153 50 13 25 13 152 0 165 -3 4 -41
1 -85 -5 -181 -25 -710 -22 -917 6 l-43 6 -7 -60 c-7 -61 10 -132 32 -132 31
0 188 -33 222 -46 52 -21 90 -66 90 -107 0 -39 -621 -1851 -630 -1840 -4 5
-184 476 -400 1048 -216 572 -401 1062 -413 1088 -11 26 -29 54 -41 62 -19 14
-90 18 -126 9z"/>
</g>
</svg>
