<?xml version="1.0" standalone="no"?>
<!DOCTYPE svg PUBLIC "-//W3C//DTD SVG 20010904//EN"
 "http://www.w3.org/TR/2001/REC-SVG-20010904/DTD/svg10.dtd">
<svg version="1.0" xmlns="http://www.w3.org/2000/svg"
 width="600.000000pt" height="600.000000pt" viewBox="0 0 600.000000 600.000000"
 preserveAspectRatio="xMidYMid meet">
<metadata>
Created by potrace 1.13, written by Peter Selinger 2001-2015
</metadata>
<g transform="translate(0.000000,600.000000) scale(0.100000,-0.100000)"
fill="#000000" stroke="none">
<path d="M0 3000 l0 -3000 3000 0 3000 0 0 3000 0 3000 -3000 0 -3000 0 0
-3000z m5955 0 l0 -2955 -2955 0 -2955 0 -3 2945 c-1 1620 0 2951 3 2958 3 10
600 12 2957 10 l2953 -3 0 -2955z"/>
<path d="M400 3015 l0 -2625 2625 0 2625 0 0 2625 0 2625 -2625 0 -2625 0 0
-2625z m5205 0 l0 -2580 -2580 0 -2580 0 -3 2570 c-1 1414 0 2576 3 2583 3 10
525 12 2582 10 l2578 -3 0 -2580z"/>
<path d="M1167 4904 c-4 -4 -7 -45 -7 -91 0 -108 16 -127 111 -138 182 -20
305 -64 372 -133 52 -55 1008 -1522 1000 -1536 -61 -99 -1037 -1503 -1067
-1534 -54 -57 -191 -123 -321 -156 -128 -32 -135 -40 -135 -154 l0 -85 68 7
c300 28 679 30 1060 5 90 -6 166 -8 169 -5 11 11 15 110 6 146 -11 42 -45 62
-152 86 -192 42 -248 109 -192 229 17 36 757 1124 785 1152 9 10 53 -52 201
-285 104 -163 277 -434 384 -601 212 -332 224 -359 182 -413 -25 -31 -102 -62
-221 -88 -116 -26 -132 -44 -128 -149 l3 -76 55 1 c30 0 219 6 419 13 303 11
432 11 765 0 221 -7 433 -13 471 -14 l70 0 3 91 3 92 -31 26 c-18 14 -41 26
-53 26 -12 0 -76 11 -141 24 -136 28 -224 67 -278 123 -20 21 -281 408 -581
860 l-545 822 470 663 c258 365 491 685 516 711 67 69 163 113 306 142 65 13
125 30 133 38 20 20 29 79 23 147 -5 51 -7 55 -30 53 -14 0 -99 -7 -190 -13
-183 -14 -822 -8 -970 9 -64 8 -86 7 -92 -2 -4 -7 -8 -46 -8 -88 0 -101 11
-114 110 -133 154 -29 250 -85 250 -144 0 -15 -13 -51 -29 -80 -31 -56 -677
-998 -690 -1007 -13 -8 -671 1059 -678 1099 -5 30 -1 40 24 65 35 34 109 59
207 68 50 4 75 12 95 29 24 21 26 27 25 108 0 48 -3 88 -5 91 -3 2 -77 0 -164
-5 -423 -25 -1335 -21 -1530 6 -22 3 -43 2 -48 -2z"/>
</g>
</svg>
