<?xml version="1.0" standalone="no"?>
<!DOCTYPE svg PUBLIC "-//W3C//DTD SVG 20010904//EN"
 "http://www.w3.org/TR/2001/REC-SVG-20010904/DTD/svg10.dtd">
<svg version="1.0" xmlns="http://www.w3.org/2000/svg"
 width="600.000000pt" height="600.000000pt" viewBox="0 0 600.000000 600.000000"
 preserveAspectRatio="xMidYMid meet">
<metadata>
Created by potrace 1.13, written by Peter Selinger 2001-2015
</metadata>
<g transform="translate(0.000000,600.000000) scale(0.100000,-0.100000)"
fill="#000000" stroke="none">
<path d="M0 3000 l0 -3000 3000 0 3000 0 0 3000 0 3000 -3000 0 -3000 0 0
-3000z m5955 0 l0 -2955 -2955 0 -2955 0 -3 2945 c-1 1620 0 2951 3 2958 3 10
600 12 2957 10 l2953 -3 0 -2955z"/>
<path d="M400 3015 l0 -2625 2625 0 2625 0 0 2625 0 2625 -2625 0 -2625 0 0
-2625z m5205 0 l0 -2580 -2580 0 -2580 0 -3 2570 c-1 1414 0 2576 3 2583 3 10
525 12 2582 10 l2578 -3 0 -2580z"/>
<path d="M1235 4817 c-9 -69 1 -130 25 -152 10 -9 58 -24 106 -34 156 -33 246
-81 301 -162 16 -24 237 -440 491 -925 l462 -880 0 -611 0 -610 -22 -34 c-32
-48 -113 -85 -253 -115 -147 -31 -173 -41 -187 -68 -15 -26 -15 -153 0 -168
11 -11 133 -8 530 13 215 11 299 11 550 -1 164 -8 365 -14 447 -15 l150 0 3
70 c2 38 0 80 -3 93 -7 30 -48 46 -170 67 -166 29 -244 67 -283 139 -15 28
-17 87 -20 632 l-3 601 490 904 c437 805 497 910 543 955 70 67 136 92 351
128 54 10 71 42 71 132 0 41 -4 78 -9 83 -6 6 -38 6 -85 0 -197 -25 -945 -20
-1097 7 -30 6 -32 4 -39 -33 -10 -48 -10 -100 -1 -135 8 -31 43 -52 101 -61
86 -14 188 -51 217 -80 33 -33 38 -84 15 -149 -17 -48 -698 -1328 -707 -1328
-3 0 -163 309 -354 688 -381 752 -381 754 -328 804 34 32 98 54 184 64 51 6
69 13 92 36 28 27 29 32 26 107 -2 44 -6 82 -9 84 -3 3 -54 1 -115 -4 -318
-25 -1224 -21 -1422 7 l-41 6 -7 -55z"/>
</g>
</svg>
