<?xml version="1.0" standalone="no"?>
<!DOCTYPE svg PUBLIC "-//W3C//DTD SVG 20010904//EN"
 "http://www.w3.org/TR/2001/REC-SVG-20010904/DTD/svg10.dtd">
<svg version="1.0" xmlns="http://www.w3.org/2000/svg"
 width="600.000000pt" height="600.000000pt" viewBox="0 0 600.000000 600.000000"
 preserveAspectRatio="xMidYMid meet">
<metadata>
Created by potrace 1.13, written by Peter Selinger 2001-2015
</metadata>
<g transform="translate(0.000000,600.000000) scale(0.100000,-0.100000)"
fill="#000000" stroke="none">
<path d="M0 3000 l0 -3000 3000 0 3000 0 0 3000 0 3000 -3000 0 -3000 0 0
-3000z m5955 0 l0 -2955 -2955 0 -2955 0 -3 2945 c-1 1620 0 2951 3 2958 3 10
600 12 2957 10 l2953 -3 0 -2955z"/>
<path d="M400 3015 l0 -2625 2625 0 2625 0 0 2625 0 2625 -2625 0 -2625 0 0
-2625z m5205 0 l0 -2580 -2580 0 -2580 0 -3 2570 c-1 1414 0 2576 3 2583 3 10
525 12 2582 10 l2578 -3 0 -2580z"/>
<path d="M1710 4903 c-27 -10 -59 -46 -69 -77 -5 -17 -15 -89 -21 -161 -19
-229 -41 -436 -61 -573 -10 -73 -19 -137 -19 -142 0 -37 158 -54 211 -23 34
20 34 22 64 143 77 314 175 434 396 486 65 15 153 18 722 21 l648 5 -54 -89
c-30 -48 -490 -803 -1024 -1678 -533 -875 -975 -1599 -980 -1610 -6 -11 -13
-37 -17 -57 l-7 -38 1213 -1 c667 0 1265 -4 1328 -9 63 -5 183 -12 265 -16
164 -8 201 0 226 48 7 12 20 103 30 203 30 301 69 581 104 751 7 29 5 31 -45
47 -65 21 -102 21 -140 2 -35 -18 -38 -23 -85 -150 -113 -303 -235 -462 -403
-525 -128 -48 -164 -50 -837 -48 l-631 3 1014 1655 c557 910 1022 1673 1032
1695 11 22 20 57 20 78 l0 37 -1217 0 c-982 0 -1249 3 -1378 15 -165 15 -259
18 -285 8z"/>
</g>
</svg>
